#!OML:ASF H:\Terrain\Patient Classification 1\Walking\steve\steve.ASF
:FULLY-SPECIFIED
:DEGREES
186
root 9.20275 16.2482 4.42137 6.2235 0.275968 4.41919
lowerback -0.422935 0.723011 -6.69839
upperback -3.07728 0.875304 -0.190677
thorax -3.04811 0.611058 3.53619
lowerneck -9.46452 -1.13755 -4.22699
upperneck 10.3551 -1.14783 1.85514
head 4.69242 -0.614363 1.18338
rclavicle 7.96847e-015 -1.31198e-014
rhumerus -63.61 -24.38 -61.6631
rradius 18.4198
rwrist 10.4966
rhand -16.4743 -37.8059
rfingers 7.12502
rthumb 9.74257 -67.5606
lclavicle 7.96847e-015 -1.31198e-014
lhumerus -9.22583 -4.80273 86.6507
lradius 41.6851
lwrist 28.6618
lhand -24.7938 -12.1381
lfingers 7.12502
lthumb 1.7107 17.8348
rfemur -41.4932 1.18593 17.4464
rtibia 32.7715
rfoot -15.8679 -1.29028
rtoes -7.69536
lfemur 5.22851 3.63398 -28.7553
ltibia 12.287
lfoot -14.3891 -8.84095
ltoes 1.7597
187
root 9.19736 16.2372 4.6504 6.31548 0.772165 4.34214
lowerback -0.36542 0.578731 -6.58483
upperback -3.15814 0.678829 -0.112617
thorax -3.14171 0.516217 3.55747
lowerneck -9.29345 -1.20939 -4.30289
upperneck 10.281 -1.24406 1.87987
head 4.64472 -0.663286 1.19736
rclavicle -5.19325e-015 3.97569e-016
rhumerus -65.6002 -24.8023 -59.5105
rradius 18.2076
rwrist 11.1647
rhand -17.0648 -38.0757
rfingers 7.12502
rthumb 9.17281 -67.8562
lclavicle -5.19325e-015 3.97569e-016
lhumerus -8.33115 -5.59814 86.5069
lradius 42.9088
lwrist 28.8812
lhand -24.6542 -12.7989
lfingers 7.12502
lthumb 1.84549 17.1728
rfemur -41.9268 1.21644 17.3533
rtibia 30.7017
rfoot -15.9904 -1.19567
rtoes -11.5038
lfemur 7.73571 3.08722 -28.5744
ltibia 9.0369
lfoot -12.9997 -8.14828
ltoes 1.06704
188
root 9.19056 16.2151 4.88484 6.42255 1.34462 4.89594
lowerback -0.342953 0.387628 -7.15154
upperback -3.2169 0.409715 -0.188864
thorax -3.19443 0.399561 3.80269
lowerneck -9.37911 -1.24722 -4.69504
upperneck 10.4024 -1.29182 2.34474
head 4.70324 -0.673917 1.40176
rclavicle -6.09399e-015 2.98177e-015
rhumerus -67.6698 -25.5573 -56.721
rradius 17.6923
rwrist 12.8302
rhand -17.3816 -38.136
rfingers 7.12502
rthumb 8.86716 -67.9297
lclavicle -6.09399e-015 2.98177e-015
lhumerus -7.23882 -6.33076 86.2923
lradius 43.803
lwrist 29.2907
lhand -24.7504 -13.6766
lfingers 7.12502
lthumb 1.7526 16.296
rfemur -42.4547 0.57298 16.8561
rtibia 29.0241
rfoot -15.8139 -0.126403
rtoes -11.2443
lfemur 11.4415 2.39771 -29.0467
ltibia 3.47507
lfoot -10.429 -7.34401
ltoes 2.36841
189
root 9.18066 16.1954 5.12218 6.50391 1.86673 5.50529
lowerback -0.399626 0.189233 -7.83291
upperback -3.20501 0.139597 -0.244943
thorax -3.12603 0.27992 4.13361
lowerneck -9.19615 -1.18575 -5.03562
upperneck 10.0533 -1.20834 2.69454
head 4.56619 -0.623251 1.57122
rclavicle -1.05822e-014 3.77691e-015
rhumerus -69.4859 -26.206 -54.1874
rradius 17.2932
rwrist 14.3894
rhand -17.3507 -37.8426
rfingers 7.12502
rthumb 8.89694 -67.6351
lclavicle -1.05822e-014 3.77691e-015
lhumerus -6.08658 -6.91503 86.1255
lradius 44.5933
lwrist 29.7837
lhand -24.8405 -14.58
lfingers 7.12502
lthumb 1.66558 15.3933
rfemur -42.9089 -0.451697 16.568
rtibia 27.5076
rfoot -15.2955 1.37333
rtoes -6.60295
lfemur 14.0251 1.75923 -29.599
ltibia 3.18055e-014
lfoot -8.68488 -6.87227
ltoes 4.59348
190
root 9.17036 16.1836 5.35269 6.60497 2.29353 5.38314
lowerback -0.603177 0.0375983 -7.69426
upperback -3.11492 -0.0355438 -0.141921
thorax -2.89262 0.179137 4.16741
lowerneck -8.74003 -1.07921 -5.33437
upperneck 9.31859 -1.08061 3.05151
head 4.26307 -0.548148 1.73786
rclavicle 1.13525e-015 -3.97569e-016
rhumerus -70.936 -26.7635 -52.1051
rradius 17.0144
rwrist 15.3194
rhand -17.0494 -38.1453
rfingers 7.12502
rthumb 9.18763 -67.9252
lclavicle 1.13525e-015 -3.97569e-016
lhumerus -5.0448 -7.85684 85.7611
lradius 45.7714
lwrist 30.5983
lhand -25.0379 -14.7628
lfingers 7.12502
lthumb 1.47496 15.2118
rfemur -43.3233 -1.23954 17.1202
rtibia 26.051
rfoot -15.0233 2.48404
rtoes -0.443535
lfemur 14.7538 1.2772 -29.3635
ltibia -1.59028e-014
lfoot -8.69832 -6.8494
ltoes 4.35468
191
root 9.16852 16.1485 5.58501 6.76337 2.57206 5.20378
lowerback -0.892283 -0.0508256 -7.35829
upperback -3.04053 -0.120304 -0.0860061
thorax -2.63801 0.117823 4.03817
lowerneck -8.53096 -1.05583 -5.26538
upperneck 8.879 -1.05563 2.97117
head 4.09222 -0.536101 1.70275
rclavicle -5.95034e-015 -1.35174e-014
rhumerus -72.2411 -27.0178 -50.5183
rradius 16.9023
rwrist 15.7032
rhand -16.378 -39.6277
rfingers 7.12502
rthumb 9.8355 -69.3779
lclavicle -5.95034e-015 -1.35174e-014
lhumerus -4.10049 -8.68349 85.2961
lradius 47.0389
lwrist 31.3485
lhand -25.2179 -14.54
lfingers 7.12502
lthumb 1.30115 15.4358
rfemur -43.9399 -2.34154 18.0379
rtibia 24.7974
rfoot -14.2017 4.62783
rtoes 5.02529
lfemur 15.5538 0.939668 -29.1051
ltibia -6.36111e-015
lfoot -8.77416 -6.7218
ltoes 1.14321
192
root 9.1678 16.0997 5.82029 6.85722 2.75718 5.33318
lowerback -0.854889 -0.102228 -7.38428
upperback -3.08592 -0.193694 -0.0640427
thorax -2.69745 0.0855356 4.07675
lowerneck -8.57268 -1.07847 -4.9808
upperneck 8.80077 -1.06906 2.4862
head 4.07214 -0.558653 1.50621
rclavicle -1.40364e-014 1.86858e-014
rhumerus -73.5729 -27.0143 -48.9806
rradius 16.7946
rwrist 16.0166
rhand -15.985 -40.2329
rfingers 7.12502
rthumb 10.2146 -69.9649
lclavicle -1.40364e-014 1.86858e-014
lhumerus -3.4665 -8.40922 85.2826
lradius 48.0268
lwrist 30.9338
lhand -24.9835 -14.7484
lfingers 7.12502
lthumb 1.52753 15.2259
rfemur -44.5011 -3.22502 18.5116
rtibia 23.8281
rfoot -12.7263 7.19889
rtoes 7.97248
lfemur 16.4554 0.667773 -29.1512
ltibia 2.54444e-014
lfoot -8.38501 -6.82526
ltoes 1.528
193
root 9.15972 16.0827 6.05016 6.88603 2.96817 5.34482
lowerback -0.573205 -0.190344 -7.40003
upperback -3.20645 -0.338307 0.0466584
thorax -2.96395 0.0283964 4.20457
lowerneck -8.58699 -1.0439 -5.0084
upperneck 8.37381 -0.991487 2.27463
head 4.3821 -0.541207 1.61225
rclavicle 7.97779e-015 5.56597e-015
rhumerus -74.6836 -26.809 -47.7327
rradius 16.5696
rwrist 16.2612
rhand -15.8592 -39.6502
rfingers 7.12502
rthumb 10.336 -69.3762
lclavicle 7.97779e-015 5.56597e-015
lhumerus -3.11771 -8.22291 85.265
lradius 48.9088
lwrist 30.5884
lhand -25.211 -15.2925
lfingers 7.12502
lthumb 1.30773 14.6832
rfemur -44.7015 -3.25076 18.5916
rtibia 23.269
rfoot -13.0622 7.63379
rtoes -3.4383
lfemur 17.2971 0.384199 -29.0318
ltibia 0
lfoot -7.93816 -6.93936
ltoes 2.89149
194
root 9.14938 16.0722 6.2743 6.86203 3.13246 5.20859
lowerback -0.30149 -0.277355 -7.23589
upperback -3.23553 -0.47321 0.180895
thorax -3.12961 -0.0345036 4.2568
lowerneck -10.1085 -1.31427 -4.3515
upperneck 9.969 -1.2725 1.31573
head 4.68285 -0.708196 1.02488
rclavicle -1.58857e-014 1.59028e-014
rhumerus -75.7084 -26.7158 -46.5649
rradius 16.6395
rwrist 16.5545
rhand -15.6544 -39.6676
rfingers 7.12502
rthumb 10.5335 -69.3836
lclavicle -1.58857e-014 1.59028e-014
lhumerus -2.57549 -8.68853 84.9153
lradius 49.6484
lwrist 30.9755
lhand -25.8227 -15.8532
lfingers 7.12502
lthumb 0.716967 14.1253
rfemur -44.9372 -2.80818 18.562
rtibia 23.6742
rfoot -14.1203 7.50197
rtoes -6.5378
lfemur 18.1497 0.16567 -28.7539
ltibia -3.18055e-014
lfoot -7.4962 -6.86508
ltoes 1.6959
195
root 9.14336 16.0503 6.50107 6.75393 3.18898 5.38819
lowerback -0.0912241 -0.312552 -7.32209
upperback -3.09848 -0.532636 0.226087
thorax -3.09748 -0.0661242 4.35491
lowerneck -9.52492 -1.04306 -4.89548
upperneck 9.08562 -0.916425 1.84087
head 4.30864 -0.514588 1.30103
rclavicle 1.32751e-014 8.34896e-015
rhumerus -76.8386 -27.0222 -44.6212
rradius 16.5572
rwrist 17.9835
rhand -15.6786 -39.5334
rfingers 7.12502
rthumb 10.5102 -69.2507
lclavicle 1.32751e-014 8.34896e-015
lhumerus -1.86523 -8.77192 84.6851
lradius 50.3882
lwrist 31.128
lhand -26.0692 -16.0734
lfingers 7.12502
lthumb 0.478943 13.9058
rfemur -44.9742 -1.75322 17.7043
rtibia 24.3806
rfoot -13.6148 7.70509
rtoes -2.61664
lfemur 19.1048 0.0370817 -28.8398
ltibia 1.59028e-014
lfoot -6.76137 -6.64588
ltoes -1.74456
196
root 9.15529 16.0159 6.78091 6.33421 3.34997 6.24861
lowerback -0.255056 -0.374814 -7.86751
upperback -2.74638 -0.598089 0.0667167
thorax -2.62945 -0.115277 4.49371
lowerneck -9.39138 -0.978544 -5.05487
upperneck 8.63357 -0.79997 1.70905
head 4.14451 -0.465714 1.29334
rclavicle -2.25341e-014 1.78906e-014
rhumerus -78.0332 -27.3799 -42.1252
rradius 15.9111
rwrist 20.554
rhand -15.6084 -38.5415
rfingers 7.12502
rthumb 10.5779 -68.2553
lclavicle -2.25341e-014 1.78906e-014
lhumerus -1.64598 -8.60682 84.7243
lradius 51.4759
lwrist 31.2821
lhand -26.2325 -16.0498
lfingers 7.12502
lthumb 0.321173 13.9297
rfemur -44.3933 -1.91564 16.6217
rtibia 25.2003
rfoot -14.6446 8.26219
rtoes -5.9187
lfemur 20.6424 -0.169339 -29.7886
ltibia 3.18055e-015
lfoot -6.01262 -6.41722
ltoes -7.22453
197
root 9.1467 15.9739 7.01449 6.3851 3.3764 5.69387
lowerback -0.109775 -0.370625 -7.17942
upperback -2.86776 -0.595774 0.284985
thorax -2.83741 -0.116424 4.33616
lowerneck -9.33896 -0.94119 -4.87123
upperneck 8.15218 -0.715598 1.12814
head 4.42824 -0.454214 1.21316
rclavicle -4.89818e-015 -1.19271e-014
rhumerus -79.0022 -27.3312 -40.5768
rradius 15.4382
rwrist 22.2171
rhand -15.3549 -37.9518
rfingers 7.12502
rthumb 10.8224 -67.653
lclavicle -4.89818e-015 -1.19271e-014
lhumerus -2.03238 -8.59055 84.6556
lradius 52.7497
lwrist 31.6368
lhand -26.2802 -16.141
lfingers 7.12502
lthumb 0.275165 13.8386
rfemur -44.3965 -0.864788 16.8216
rtibia 26.0572
rfoot -14.8839 8.02348
rtoes -6.4483
lfemur 21.3917 -0.232916 -29.1002
ltibia -1.27222e-014
lfoot -4.75826 -6.27502
ltoes -10.7721
198
root 9.1422 15.9297 7.24344 6.35938 3.46866 5.35839
lowerback 0.266103 -0.447113 -6.64256
upperback -3.02732 -0.720952 0.404317
thorax -3.20086 -0.174049 4.16623
lowerneck -9.2743 -0.834249 -4.80939
upperneck 8.11976 -0.566923 0.957797
head 4.3956 -0.387277 1.15323
rclavicle -7.39929e-015 1.63003e-014
rhumerus -79.853 -27.1726 -39.3844
rradius 15.1606
rwrist 23.3557
rhand -15.55 -37.4478
rfingers 7.12502
rthumb 10.6342 -67.1588
lclavicle -7.39929e-015 1.63003e-014
lhumerus -2.37983 -8.8579 84.2626
lradius 53.7047
lwrist 32.2899
lhand -26.3145 -16.2211
lfingers 7.12502
lthumb 0.242001 13.7585
rfemur -44.3322 -0.607607 17.2865
rtibia 27.1088
rfoot -13.295 8.13477
rtoes -5.67219
lfemur 22.2225 -0.387885 -28.5598
ltibia 3.81667e-014
lfoot -2.87657 -6.40138
ltoes -6.71504
